<?xml version="1.0" encoding="UTF-8"?>
<!-- Converted by misc2svg (http://www.network-science.de/tools/misc2svg/) -->
<svg xmlns="http://www.w3.org/2000/svg" xmlns:xlink="http://www.w3.org/1999/xlink" width="286pt" height="200pt" viewBox="0 0 286 200" version="1.1">
<defs>
<clipPath id="clip1">
  <path d="M 0 200 L 286.25 200 L 286.25 0 L 0 0 L 0 200 Z M 0 200 "/>
</clipPath>
</defs>
<g id="misc2svg">
<g clip-path="url(#clip1)" clip-rule="nonzero">
<path style=" stroke:none;fill-rule: nonzero; fill: rgb(0%,0%,0%); fill-opacity: 1;" d="M 92.8125 115 L 90.6875 116.1875 L 90.6875 66.625 L 91.75 66 L 92.8125 66.625 L 92.8125 115 Z M 92.8125 115 "/>
<path style=" stroke:none;fill-rule: nonzero; fill: rgb(0%,0%,0%); fill-opacity: 1;" d="M 134.75 139.1875 L 134.75 141.625 L 90.6875 116.1875 L 92.8125 115 L 134.75 139.1875 Z M 134.75 139.1875 "/>
<path style=" stroke:none;fill-rule: nonzero; fill: rgb(0%,0%,0%); fill-opacity: 1;" d="M 176.625 115 L 177.6875 115.625 L 176.9375 117.3125 L 134.75 141.625 L 134.75 139.1875 L 176.625 115 Z M 176.625 115 "/>
<path style=" stroke:none;fill-rule: nonzero; fill: rgb(0%,0%,0%); fill-opacity: 1;" d="M 176.625 66.625 L 177.6875 66 L 178.75 66.75 L 178.75 114.8125 L 177.6875 115.625 L 176.625 115 L 176.625 66.625 Z M 176.625 66.625 "/>
<path style=" stroke:none;fill-rule: nonzero; fill: rgb(0%,0%,0%); fill-opacity: 1;" d="M 134.75 42.375 L 134.75 39.9375 L 176.9375 64.3125 L 177.6875 66 L 176.625 66.625 L 134.75 42.375 Z M 134.75 42.375 "/>
<path style=" stroke:none;fill-rule: nonzero; fill: rgb(0%,0%,0%); fill-opacity: 1;" d="M 92.8125 66.625 L 91.75 66 L 91.75 64.75 L 134.75 39.9375 L 134.75 42.375 L 92.8125 66.625 Z M 92.8125 66.625 "/>
<path style=" stroke:none;fill-rule: nonzero; fill: rgb(0%,0%,0%); fill-opacity: 1;" d="M 99.75 71.1875 L 98.6875 69.375 L 134.1875 48.875 L 135.25 50.6875 L 99.75 71.1875 Z M 99.75 71.1875 "/>
<path style=" stroke:none;fill-rule: nonzero; fill: rgb(0%,0%,0%); fill-opacity: 1;" d="M 214.695312 51.09375 C 214.695312 47.539062 215.652344 44.757812 217.566406 42.734375 C 219.480469 40.71875 221.953125 39.707031 224.988281 39.707031 C 226.964844 39.707031 228.75 40.1875 230.339844 41.132812 C 231.941406 42.070312 233.15625 43.394531 233.992188 45.097656 C 234.820312 46.792969 235.242188 48.710938 235.242188 50.859375 C 235.242188 53.039062 234.796875 54.980469 233.914062 56.699219 C 233.039062 58.417969 231.796875 59.722656 230.183594 60.605469 C 228.566406 61.492188 226.828125 61.933594 224.96875 61.933594 C 222.945312 61.933594 221.140625 61.445312 219.539062 60.46875 C 217.945312 59.492188 216.746094 58.160156 215.925781 56.464844 C 215.105469 54.773438 214.695312 52.984375 214.695312 51.09375 Z M 217.625 51.152344 C 217.625 53.730469 218.320312 55.773438 219.714844 57.265625 C 221.105469 58.75 222.851562 59.492188 224.949219 59.492188 C 227.097656 59.492188 228.859375 58.746094 230.242188 57.246094 C 231.617188 55.738281 232.3125 53.601562 232.3125 50.839844 C 232.3125 49.097656 232.007812 47.574219 231.414062 46.269531 C 230.828125 44.957031 229.960938 43.941406 228.816406 43.222656 C 227.683594 42.507812 226.414062 42.148438 225.007812 42.148438 C 222.984375 42.148438 221.25 42.84375 219.792969 44.21875 C 218.347656 45.601562 217.625 47.910156 217.625 51.152344 Z M 217.625 51.152344 "/>
<path style=" stroke:none;fill-rule: nonzero; fill: rgb(0%,0%,0%); fill-opacity: 1;" d="M 224.5 129.6875 L 224.875 130.9375 L 223.9375 131.75 L 179.5 117.3125 L 177.6875 115.625 L 178.75 114.8125 L 224.5 129.6875 Z M 224.5 129.6875 "/>
<path style=" stroke:none;fill-rule: nonzero; fill: rgb(0%,0%,0%); fill-opacity: 1;" d="M 252.75 90.8125 L 255.375 90.8125 L 226.0625 131.0625 L 224.875 130.9375 L 224.5 129.6875 L 252.75 90.8125 Z M 252.75 90.8125 "/>
<path style=" stroke:none;fill-rule: nonzero; fill: rgb(0%,0%,0%); fill-opacity: 1;" d="M 231.6875 61.8125 L 233.4375 60.5625 L 255.375 90.8125 L 252.75 90.8125 L 231.6875 61.8125 Z M 231.6875 61.8125 "/>
<path style=" stroke:none;fill-rule: nonzero; fill: rgb(0%,0%,0%); fill-opacity: 1;" d="M 178.75 66.75 L 177.6875 66 L 179.5 64.3125 L 212.875 53.4375 L 213.5625 55.4375 L 178.75 66.75 Z M 178.75 66.75 "/>
<path style=" stroke:none;fill-rule: nonzero; fill: rgb(0%,0%,0%); fill-opacity: 1;" d="M 244.386719 182.273438 L 247.238281 182.996094 C 246.636719 185.332031 245.5625 187.113281 244.015625 188.347656 C 242.460938 189.574219 240.570312 190.183594 238.332031 190.183594 C 236.027344 190.183594 234.140625 189.714844 232.6875 188.777344 C 231.242188 187.832031 230.140625 186.464844 229.386719 184.675781 C 228.628906 182.878906 228.253906 180.960938 228.253906 178.914062 C 228.253906 176.679688 228.671875 174.726562 229.523438 173.054688 C 230.382812 171.390625 231.597656 170.125 233.175781 169.265625 C 234.75 168.40625 236.484375 167.976562 238.390625 167.976562 C 240.539062 167.976562 242.339844 168.523438 243.800781 169.617188 C 245.269531 170.710938 246.289062 172.25 246.867188 174.226562 L 244.074219 174.890625 C 243.566406 173.328125 242.835938 172.191406 241.886719 171.472656 C 240.949219 170.761719 239.761719 170.398438 238.332031 170.398438 C 236.675781 170.398438 235.296875 170.800781 234.191406 171.589844 C 233.082031 172.386719 232.300781 173.445312 231.847656 174.773438 C 231.402344 176.101562 231.183594 177.480469 231.183594 178.894531 C 231.183594 180.722656 231.441406 182.3125 231.964844 183.679688 C 232.496094 185.046875 233.320312 186.074219 234.445312 186.746094 C 235.578125 187.410156 236.792969 187.742188 238.097656 187.742188 C 239.699219 187.742188 241.046875 187.289062 242.140625 186.375 C 243.242188 185.453125 243.996094 184.085938 244.386719 182.273438 Z M 244.386719 182.273438 "/>
<path style=" stroke:none;fill-rule: nonzero; fill: rgb(0%,0%,0%); fill-opacity: 1;" d="M 250.8125 189.8125 L 250.8125 168.328125 L 253.664062 168.328125 L 253.664062 177.15625 L 264.816406 177.15625 L 264.816406 168.328125 L 267.667969 168.328125 L 267.667969 189.8125 L 264.816406 189.8125 L 264.816406 179.695312 L 253.664062 179.695312 L 253.664062 189.8125 L 250.8125 189.8125 Z M 250.8125 189.8125 "/>
<path style=" stroke:none;fill-rule: nonzero; fill: rgb(0%,0%,0%); fill-opacity: 1;" d="M 271.082031 191.914062 L 273.074219 191.660156 C 273.292969 192.78125 273.679688 193.585938 274.226562 194.082031 C 274.773438 194.578125 275.4375 194.824219 276.21875 194.824219 C 277.15625 194.824219 277.941406 194.503906 278.582031 193.867188 C 279.214844 193.214844 279.539062 192.414062 279.539062 191.464844 C 279.539062 190.554688 279.234375 189.804688 278.640625 189.21875 C 278.054688 188.621094 277.300781 188.320312 276.394531 188.320312 C 276.011719 188.320312 275.542969 188.398438 274.988281 188.554688 L 275.203125 186.816406 C 275.328125 186.828125 275.441406 186.835938 275.535156 186.835938 C 276.363281 186.835938 277.121094 186.613281 277.800781 186.171875 C 278.472656 185.730469 278.816406 185.050781 278.816406 184.140625 C 278.816406 183.410156 278.566406 182.8125 278.074219 182.34375 C 277.574219 181.863281 276.945312 181.621094 276.179688 181.621094 C 275.40625 181.621094 274.761719 181.863281 274.246094 182.34375 C 273.738281 182.824219 273.410156 183.554688 273.269531 184.53125 L 271.296875 184.179688 C 271.53125 182.851562 272.078125 181.824219 272.9375 181.09375 C 273.796875 180.363281 274.859375 180 276.140625 180 C 277.007812 180 277.820312 180.1875 278.5625 180.566406 C 279.304688 180.945312 279.871094 181.457031 280.261719 182.109375 C 280.652344 182.761719 280.847656 183.449219 280.847656 184.179688 C 280.847656 184.882812 280.65625 185.519531 280.28125 186.09375 C 279.914062 186.652344 279.363281 187.101562 278.621094 187.441406 C 279.566406 187.664062 280.304688 188.125 280.828125 188.828125 C 281.359375 189.519531 281.628906 190.378906 281.628906 191.40625 C 281.628906 192.8125 281.109375 194.011719 280.085938 195 C 279.070312 195.976562 277.78125 196.464844 276.21875 196.464844 C 274.796875 196.464844 273.621094 196.042969 272.683594 195.195312 C 271.753906 194.347656 271.222656 193.253906 271.082031 191.914062 Z M 271.082031 191.914062 "/>
<path style=" stroke:none;fill-rule: nonzero; fill: rgb(0%,0%,0%); fill-opacity: 1;" d="M 239.125 165.5 L 229.875 168 L 223.9375 131.75 L 224.875 130.9375 L 226.0625 131.0625 L 239.125 165.5 Z M 239.125 165.5 "/>
<path style=" stroke:none;fill-rule: nonzero; fill: rgb(0%,0%,0%); fill-opacity: 1;" d="M 6.011719 52.125 L 6.011719 30.640625 L 8.863281 30.640625 L 8.863281 39.46875 L 20.015625 39.46875 L 20.015625 30.640625 L 22.867188 30.640625 L 22.867188 52.125 L 20.015625 52.125 L 20.015625 42.007812 L 8.863281 42.007812 L 8.863281 52.125 L 6.011719 52.125 Z M 6.011719 52.125 "/>
<path style=" stroke:none;fill-rule: nonzero; fill: rgb(0%,0%,0%); fill-opacity: 1;" d="M 26.273438 54.222656 L 28.265625 53.96875 C 28.484375 55.09375 28.871094 55.898438 29.417969 56.390625 C 29.964844 56.890625 30.628906 57.132812 31.410156 57.132812 C 32.347656 57.132812 33.132812 56.816406 33.773438 56.175781 C 34.410156 55.527344 34.730469 54.726562 34.730469 53.773438 C 34.730469 52.867188 34.429688 52.113281 33.832031 51.527344 C 33.246094 50.933594 32.496094 50.628906 31.585938 50.628906 C 31.207031 50.628906 30.738281 50.707031 30.179688 50.863281 L 30.394531 49.125 C 30.523438 49.140625 30.632812 49.144531 30.726562 49.144531 C 31.558594 49.144531 32.3125 48.925781 32.992188 48.480469 C 33.667969 48.042969 34.007812 47.363281 34.007812 46.449219 C 34.007812 45.722656 33.757812 45.121094 33.265625 44.652344 C 32.769531 44.175781 32.136719 43.929688 31.371094 43.929688 C 30.601562 43.929688 29.957031 44.175781 29.4375 44.652344 C 28.929688 45.136719 28.601562 45.863281 28.460938 46.839844 L 26.488281 46.488281 C 26.722656 45.160156 27.269531 44.136719 28.128906 43.402344 C 28.988281 42.675781 30.054688 42.308594 31.332031 42.308594 C 32.203125 42.308594 33.011719 42.5 33.753906 42.875 C 34.496094 43.257812 35.0625 43.769531 35.453125 44.417969 C 35.84375 45.074219 36.039062 45.761719 36.039062 46.488281 C 36.039062 47.191406 35.847656 47.832031 35.472656 48.402344 C 35.105469 48.964844 34.554688 49.414062 33.8125 49.75 C 34.761719 49.976562 35.496094 50.433594 36.019531 51.136719 C 36.550781 51.832031 36.820312 52.691406 36.820312 53.714844 C 36.820312 55.121094 36.304688 56.324219 35.277344 57.308594 C 34.261719 58.285156 32.972656 58.773438 31.410156 58.773438 C 29.988281 58.773438 28.8125 58.355469 27.875 57.503906 C 26.949219 56.660156 26.414062 55.566406 26.273438 54.222656 Z M 26.273438 54.222656 "/>
<path style=" stroke:none;fill-rule: nonzero; fill: rgb(0%,0%,0%); fill-opacity: 1;" d="M 55.550781 44.585938 L 58.402344 45.308594 C 57.800781 47.640625 56.726562 49.425781 55.179688 50.660156 C 53.625 51.886719 51.730469 52.496094 49.496094 52.496094 C 47.191406 52.496094 45.304688 52.027344 43.851562 51.089844 C 42.40625 50.140625 41.300781 48.773438 40.550781 46.988281 C 39.792969 45.191406 39.417969 43.273438 39.417969 41.226562 C 39.417969 38.992188 39.835938 37.039062 40.6875 35.367188 C 41.546875 33.703125 42.761719 32.4375 44.339844 31.578125 C 45.910156 30.71875 47.648438 30.289062 49.554688 30.289062 C 51.703125 30.289062 53.503906 30.835938 54.964844 31.929688 C 56.433594 33.023438 57.453125 34.5625 58.03125 36.539062 L 55.238281 37.203125 C 54.730469 35.640625 53.996094 34.503906 53.050781 33.785156 C 52.113281 33.070312 50.925781 32.710938 49.496094 32.710938 C 47.839844 32.710938 46.457031 33.109375 45.355469 33.902344 C 44.246094 34.699219 43.464844 35.757812 43.011719 37.085938 C 42.566406 38.414062 42.347656 39.789062 42.347656 41.207031 C 42.347656 43.03125 42.605469 44.625 43.128906 45.992188 C 43.660156 47.359375 44.484375 48.382812 45.609375 49.058594 C 46.742188 49.722656 47.957031 50.054688 49.261719 50.054688 C 50.863281 50.054688 52.210938 49.601562 53.304688 48.6875 C 54.40625 47.765625 55.160156 46.398438 55.550781 44.585938 Z M 55.550781 44.585938 "/>
<path style=" stroke:none;fill-rule: nonzero; fill: rgb(0%,0%,0%); fill-opacity: 1;" d="M 59.0625 48.3125 L 60.125 46.5 L 91.75 64.75 L 91.75 66 L 90.6875 66.625 L 59.0625 48.3125 Z M 59.0625 48.3125 "/>
<path style=" stroke:none;fill-rule: nonzero; fill: rgb(0%,0%,0%); fill-opacity: 1;" d="M 264.402344 154.5 L 264.402344 133.015625 L 267.253906 133.015625 L 267.253906 141.84375 L 278.40625 141.84375 L 278.40625 133.015625 L 281.257812 133.015625 L 281.257812 154.5 L 278.40625 154.5 L 278.40625 144.382812 L 267.253906 144.382812 L 267.253906 154.5 L 264.402344 154.5 Z M 264.402344 154.5 "/>
<path style=" stroke:none;fill-rule: nonzero; fill: rgb(0%,0%,0%); fill-opacity: 1;" d="M 262.1875 136 L 259.6875 145.1875 L 257 144.125 L 259.3125 135.5625 L 262.1875 136 Z M 262.1875 136 "/>
<path style=" stroke:none;fill-rule: nonzero; fill: rgb(0%,0%,0%); fill-opacity: 1;" d="M 256.375 135.125 L 254.25 143.0625 L 251.5625 141.9375 L 253.5 134.6875 L 256.375 135.125 Z M 256.375 135.125 "/>
<path style=" stroke:none;fill-rule: nonzero; fill: rgb(0%,0%,0%); fill-opacity: 1;" d="M 250.625 134.25 L 248.8125 140.875 L 246.125 139.8125 L 247.6875 133.8125 L 250.625 134.25 Z M 250.625 134.25 "/>
<path style=" stroke:none;fill-rule: nonzero; fill: rgb(0%,0%,0%); fill-opacity: 1;" d="M 244.8125 133.4375 L 243.375 138.75 L 240.625 137.625 L 241.875 133 L 244.8125 133.4375 Z M 244.8125 133.4375 "/>
<path style=" stroke:none;fill-rule: nonzero; fill: rgb(0%,0%,0%); fill-opacity: 1;" d="M 239 132.5625 L 237.9375 136.5625 L 235.1875 135.5 L 236.125 132.125 L 239 132.5625 Z M 239 132.5625 "/>
<path style=" stroke:none;fill-rule: nonzero; fill: rgb(0%,0%,0%); fill-opacity: 1;" d="M 233.1875 131.6875 L 232.5 134.4375 L 229.75 133.3125 L 230.3125 131.25 L 233.1875 131.6875 Z M 233.1875 131.6875 "/>
<path style=" stroke:none;fill-rule: nonzero; fill: rgb(0%,0%,0%); fill-opacity: 1;" d="M 182.089844 28.8125 L 182.089844 7.328125 L 184.941406 7.328125 L 184.941406 16.15625 L 196.09375 16.15625 L 196.09375 7.328125 L 198.945312 7.328125 L 198.945312 28.8125 L 196.09375 28.8125 L 196.09375 18.695312 L 184.941406 18.695312 L 184.941406 28.8125 L 182.089844 28.8125 Z M 182.089844 28.8125 "/>
<path style=" stroke:none;fill-rule: nonzero; fill: rgb(0%,0%,0%); fill-opacity: 1;" d="M 182.25 30.6875 L 191.4375 33.1875 L 179.5 64.3125 L 177.6875 66 L 176.9375 64.3125 L 182.25 30.6875 Z M 182.25 30.6875 "/>
<path style=" stroke:none;fill-rule: nonzero; fill: rgb(0%,0%,0%); fill-opacity: 1;" d="M 182.089844 174.25 L 182.089844 152.765625 L 184.941406 152.765625 L 184.941406 161.59375 L 196.09375 161.59375 L 196.09375 152.765625 L 198.945312 152.765625 L 198.945312 174.25 L 196.09375 174.25 L 196.09375 164.132812 L 184.941406 164.132812 L 184.941406 174.25 L 182.089844 174.25 Z M 182.089844 174.25 "/>
<path style=" stroke:none;fill-rule: nonzero; fill: rgb(0%,0%,0%); fill-opacity: 1;" d="M 191.5 148.5 L 182.25 150.9375 L 176.9375 117.3125 L 177.6875 115.625 L 179.5 117.3125 L 191.5 148.5 Z M 191.5 148.5 "/>
</g>
</g>
</svg>
