<?xml version="1.0" encoding="UTF-8" standalone="no"?>
<!-- Created with Inkscape (http://www.inkscape.org/) -->
<svg xmlns:rdf="http://www.w3.org/1999/02/22-rdf-syntax-ns#" xmlns="http://www.w3.org/2000/svg" xml:space="preserve" version="1.1" xmlns:cc="http://creativecommons.org/ns#" xmlns:dc="http://purl.org/dc/elements/1.1/" viewBox="0 0 192.6 270.9"><metadata><rdf:RDF><cc:Work rdf:about=""><dc:format>image/svg+xml</dc:format><dc:type rdf:resource="http://purl.org/dc/dcmitype/StillImage"/><dc:title/></cc:Work></rdf:RDF></metadata><g transform="matrix(1.25,0,0,-1.25,-5.887,274.5)"><path d="m47.7,104.9-1.7-1,0,40.7,1.7-1" fill-rule="nonzero" fill="#000"/><path d="m81.2,85.54,0-1-0.85-0.5-34.35,19.86,1.7,1" fill-rule="nonzero" fill="#000"/><path d="m114.7,104.9,1.7-1-34.35-19.86-0.85,0.5,0,1" fill-rule="nonzero" fill="#000"/><path d="m109.2,108.6,0.9-1.5-28.45-16.41-0.9,1.5" fill-rule="nonzero" fill="#000"/><path d="m114.7,143.6,1.7,1,0-40.7-1.7,1" fill-rule="nonzero" fill="#000"/><path d="m81.2,162.9,0,1,0.85,0.5,34.35-19.8-1.7-1" fill-rule="nonzero" fill="#000"/><path d="m47.7,143.6-1.7,1,34.35,19.8,0.85-0.5,0-1" fill-rule="nonzero" fill="#000"/><path d="m53.2,139.9-0.85,1.5,28.4,16.4,0.9-1.5" fill-rule="nonzero" fill="#000"/><path d="m82.05,45.34-0.85-0.45-0.85,0.45,0,38.7,0.85,0.5,0.85-0.5" fill-rule="nonzero" fill="#000"/><g style="" transform="scale(1,-1)"><path fill-rule="nonzero" fill="#000" d="m12.71-15.59,0-17.18,2.28,0,0,7.05,8.92,0,0-7.05,2.28,0,0,17.18-2.28,0,0-8.1-8.92,0,0,8.1z"/></g><g style="" transform="scale(1,-1)"><path fill-rule="nonzero" fill="#000" d="m28.88-14.49,1.58-0.21c0.18,0.89,0.49,1.54,0.93,1.94,0.43,0.39,0.96,0.59,1.59,0.59,0.74,0,1.37-0.26,1.89-0.77,0.51-0.52,0.76-1.16,0.76-1.92,0-0.73-0.23-1.33-0.71-1.8-0.47-0.47-1.08-0.71-1.81-0.71-0.3,0-0.67,0.1-1.11,0.18l0.17-1.39h0.26c0.67,0,1.28-0.18,1.82-0.53s0.8-0.89,0.8-1.62c0-0.58-0.19-1.06-0.58-1.45-0.4-0.38-0.9-0.57-1.52-0.57s-1.13,0.2-1.54,0.58c-0.41,0.39-0.68,0.97-0.79,1.74l-1.59-0.28c0.2-1.06,0.64-1.88,1.32-2.46,0.69-0.59,1.54-0.88,2.56-0.88,0.7,0,1.35,0.15,1.94,0.46,0.59,0.3,1.05,0.71,1.36,1.23s0.47,1.08,0.47,1.66c0,0.56-0.15,1.06-0.45,1.52s-0.74,0.82-1.32,1.09c0.76,0.18,1.35,0.54,1.77,1.1,0.42,0.55,0.63,1.24,0.63,2.07,0,1.13-0.41,2.08-1.23,2.87-0.82,0.78-1.85,1.17-3.11,1.17-1.13,0-2.07-0.34-2.82-1.01-0.74-0.68-1.17-1.55-1.27-2.62z"/></g><g style="" transform="scale(1,-1)"><path fill-rule="nonzero" fill="#000" d="m52.23-21.61,2.27,0.57c-0.47,1.87-1.33,3.29-2.57,4.27s-2.75,1.47-4.54,1.47c-1.85,0-3.36-0.37-4.52-1.13-1.16-0.75-2.04-1.84-2.65-3.27-0.6-1.43-0.9-2.97-0.9-4.61,0-1.79,0.34-3.35,1.02-4.68s1.66-2.34,2.92-3.04c1.26-0.69,2.65-1.03,4.16-1.03,1.72,0,3.17,0.43,4.34,1.31,1.17,0.87,1.99,2.11,2.45,3.69l-2.24,0.53c-0.4-1.25-0.98-2.16-1.73-2.73-0.76-0.57-1.71-0.86-2.86-0.86-1.32,0-2.43,0.32-3.31,0.95-0.89,0.63-1.51,1.48-1.87,2.55s-0.54,2.17-0.54,3.3c0,1.46,0.21,2.74,0.64,3.83,0.42,1.09,1.09,1.9,1.98,2.44,0.9,0.54,1.88,0.81,2.92,0.81,1.28,0,2.35-0.37,3.24-1.1,0.88-0.74,1.48-1.83,1.79-3.27z"/></g><path d="m56.35,29.54-0.85,1.45,24.85,14.35,0.85-0.45,0-1" fill-rule="nonzero" fill="#000"/><g style="" fill-rule="nonzero" transform="scale(1,-1)" fill="#000"><path d="m121-21.61,2.3,0.57c-0.5,1.87-1.4,3.29-2.6,4.27s-2.7,1.47-4.5,1.47c-1.9,0-3.4-0.37-4.5-1.13-1.2-0.75-2.1-1.84-2.7-3.27s-0.9-2.97-0.9-4.61c0-1.79,0.3-3.35,1-4.68s1.7-2.34,2.9-3.04c1.3-0.69,2.7-1.03,4.2-1.03,1.7,0,3.2,0.43,4.3,1.31,1.2,0.87,2,2.11,2.5,3.69l-2.2,0.53c-0.4-1.25-1-2.16-1.8-2.73-0.7-0.57-1.7-0.86-2.8-0.86-1.4,0-2.5,0.32-3.4,0.95-0.8,0.63-1.5,1.48-1.8,2.55-0.4,1.07-0.6,2.17-0.6,3.3,0,1.46,0.3,2.74,0.7,3.83s1.1,1.9,2,2.44,1.8,0.81,2.9,0.81c1.3,0,2.3-0.37,3.2-1.1,0.9-0.74,1.5-1.83,1.8-3.27z"/><path d="m126.1-15.59,0-17.18,2.3,0,0,7.05,9,0,0-7.05,2.2,0,0,17.18-2.2,0,0-8.1-9,0,0,8.1z"/></g><g style="" transform="scale(1,-1)"><path fill-rule="nonzero" fill="#000" d="m142.4-14.49,1.5-0.21c0.2,0.89,0.5,1.54,1,1.94,0.4,0.39,0.9,0.59,1.6,0.59s1.3-0.26,1.8-0.77c0.6-0.52,0.8-1.16,0.8-1.92,0-0.73-0.2-1.33-0.7-1.8s-1.1-0.71-1.8-0.71c-0.3,0-0.7,0.1-1.1,0.18l0.2-1.39h0.2c0.7,0,1.3-0.18,1.8-0.53,0.6-0.35,0.8-0.89,0.8-1.62,0-0.58-0.2-1.06-0.6-1.45-0.3-0.38-0.9-0.57-1.5-0.57s-1.1,0.2-1.5,0.58c-0.4,0.39-0.7,0.97-0.8,1.74l-1.6-0.28c0.2-1.06,0.6-1.88,1.3-2.46,0.7-0.59,1.6-0.88,2.6-0.88,0.7,0,1.3,0.15,1.9,0.46,0.6,0.3,1.1,0.71,1.4,1.23s0.5,1.08,0.5,1.66c0,0.56-0.2,1.06-0.5,1.52s-0.7,0.82-1.3,1.09c0.7,0.18,1.3,0.54,1.8,1.1,0.4,0.55,0.6,1.24,0.6,2.07,0,1.13-0.4,2.08-1.2,2.87-0.9,0.78-1.9,1.17-3.1,1.17s-2.1-0.34-2.9-1.01c-0.7-0.68-1.1-1.55-1.2-2.62z"/></g><path d="m107.4,30.69-0.8-1.45-25.4,14.65,0,1,0.85,0.45" fill-rule="nonzero" fill="#000"/><g style="" fill-rule="nonzero" transform="scale(1,-1)" fill="#000"><path d="m86.66-200.1,2.27,0.6c-0.47,1.8-1.33,3.2-2.57,4.2s-2.75,1.5-4.54,1.5c-1.85,0-3.36-0.4-4.52-1.1-1.16-0.8-2.04-1.9-2.65-3.3-0.6-1.4-0.9-3-0.9-4.6,0-1.8,0.34-3.4,1.02-4.7s1.66-2.3,2.92-3,2.65-1.1,4.16-1.1c1.72,0,3.17,0.5,4.34,1.3,1.17,0.9,1.99,2.1,2.45,3.7l-2.24,0.6c-0.4-1.3-0.98-2.2-1.73-2.8-0.76-0.5-1.71-0.8-2.86-0.8-1.32,0-2.43,0.3-3.31,0.9-0.89,0.7-1.51,1.5-1.87,2.6-0.36,1-0.54,2.1-0.54,3.3,0,1.4,0.21,2.7,0.64,3.8,0.42,1.1,1.09,1.9,1.98,2.4,0.9,0.6,1.88,0.8,2.92,0.8,1.28,0,2.35-0.3,3.24-1.1,0.88-0.7,1.48-1.8,1.79-3.2z"/><path d="m91.8-194.1,0-17.2,2.27,0,0,7.1,8.93,0,0-7.1,2.3,0,0,17.2-2.3,0,0-8.1-8.93,0,0,8.1z"/></g><g style="" transform="scale(1,-1)"><path fill-rule="nonzero" fill="#000" d="m108-193,1.5-0.2c0.2,0.9,0.5,1.5,1,1.9,0.4,0.4,0.9,0.6,1.6,0.6s1.3-0.2,1.8-0.8c0.6-0.5,0.8-1.1,0.8-1.9,0-0.7-0.2-1.3-0.7-1.8-0.5-0.4-1.1-0.7-1.8-0.7-0.3,0-0.7,0.1-1.1,0.2l0.2-1.4h0.2c0.7,0,1.3-0.1,1.8-0.5,0.6-0.3,0.8-0.9,0.8-1.6,0-0.6-0.2-1.1-0.6-1.5-0.3-0.3-0.9-0.5-1.5-0.5s-1.1,0.2-1.5,0.5c-0.4,0.4-0.7,1-0.8,1.8l-1.6-0.3c0.2-1.1,0.6-1.9,1.3-2.5,0.7-0.5,1.6-0.8,2.6-0.8,0.7,0,1.3,0.1,1.9,0.4s1.1,0.7,1.4,1.2c0.3,0.6,0.5,1.1,0.5,1.7s-0.2,1.1-0.5,1.5c-0.3,0.5-0.7,0.9-1.3,1.1,0.7,0.2,1.3,0.6,1.8,1.1,0.4,0.6,0.6,1.3,0.6,2.1,0,1.1-0.4,2.1-1.2,2.9-0.9,0.7-1.9,1.1-3.1,1.1s-2.1-0.3-2.9-1c-0.7-0.7-1.1-1.5-1.2-2.6z"/></g><path d="m80.35,191.6,1.7,0,0-27.2-0.85-0.5-0.85,0.5" fill-rule="nonzero" fill="#000"/></g></svg>
